<?xml version="1.0" encoding="UTF-8"?>
<svg id="Calque_2" data-name="Calque 2" xmlns="http://www.w3.org/2000/svg" viewBox="0 0 197.44 200.78">
  <defs>
    <style>
      .cls-1 {
        fill: #7fb8e5;
      }

      .cls-1, .cls-2, .cls-3, .cls-4, .cls-5 {
        stroke: #010101;
        stroke-miterlimit: 10;
      }

      .cls-1, .cls-3, .cls-4, .cls-5 {
        stroke-width: 2.48px;
      }

      .cls-2 {
        stroke-width: 1.82px;
      }

      .cls-2, .cls-4 {
        fill: #010101;
      }

      .cls-3, .cls-6 {
        fill: #fff;
      }

      .cls-5 {
        fill: none;
      }
    </style>
  </defs>
  <g id="Calque_1-2" data-name="Calque 1">
    <g>
      <path class="cls-6" d="M195.34,63.46c-2.86,10.66-17.48,14.36-17.48,14.36,0,0,1.62,10.2-1.87,16.11-3.49,5.91-9.94,11.28-13.83,12.09-3.89.81-10.2,4.03-17.45-3.08,0,0-3.33-2.46-4.55-4.73l3.3-16.76s7.02,10.08,16.01,9.79c8.99-.28,4.7-16.5,4.7-16.5,0,0-7.99-3.88-7.6-11.05,0,0-.79-9.59,4.06-12.49h0c.05-.04.26-.15.61-.3h0c0-.06-.07-.37-.14-.85-.31-2.38-.6-9.14,5.24-12.47,0,0,5.78-2.77,7.66,2.26,0,0-.71.86-1.56,2.16.22-.3,1.14-1.33,2.46-2.16,1.83-1.15,4.43-1.93,7.08.02,0,0,1.26.85,1.59,2.18.2.84,1.05,1.32,1.84.98,2.1-.9,5.15-1.19,7.69,2.55,0,0,5.06,7.4,2.24,17.9Z"/>
      <g>
        <path class="cls-6" d="M160.68,164.58c-1.54-5.41-6.11-9.84-11.43-11.66-5.8-1.98-12.35-.82-17.66,2.96l.05-.05-6.5-16.18-15.32,4.55,8.72,23.24h0c-3.95,2-6.41,6.08-7.42,10.57-1.3,5.78,1.14,14.34,7.46,19.1,9.63,7.25,25.02-3.93,27.63-5.83,2.1-1.52,18.2-13.55,14.46-26.7Z"/>
        <path class="cls-6" d="M102.49,144.53s-3.67,34.05-33.71,24.74c.1.54.15,5.25-4.11,9.91-3.47,3.82-9.26,3.97-13.14,2.59-9.59-3.42-11.36-20.65-5.85-31.47,3.85-7.57,10.3-9.55,16.11-6.81,4.98,2.35,5.92,9.14,6.04,10.09,20.3,4.07,22.78-10.85,22.78-10.85l11.88,1.79Z"/>
        <path class="cls-3" d="M55.1,74.08s-13.27-10.28-27.68-1.21c0,0-9.67,3.16-9.94,21.12-10.11,0-12.57,5.07-12.57,5.07-4.5,6.88-5.05,19.85-.55,20.37,5.72.65,7.14-3.97,7.14-3.97,0,0-.76,9.88,6.74,11.03,6.34.97,6.96-4.78,6.96-4.78,0,0,.74,6.36,10.41,5.77,5.18-.32,8.6-9.53,5.26-11.98-1.19-.88-6.26,1.28-8.19,1.8-2.99.8-1.14-9.86-.34-8.98,1.39,1.5,2.94,7.62,6.4,5.75,4.55-2.46,1.74-10.49,1.93-9.83-3.1-8.65-10.93-6.62-10.93-6.62-2.61-10.77,7.28-15.85,7.28-15.85,12.64-5.49,22.73,7.95,22.73,7.95"/>
        <path class="cls-1" d="M157.35,11.06l-24.41,123.72c-30.02,21.93-60.04,0-60.04,0L36.63,11.14c8.56,1.53,32.24,2.61,60.12,2.61s52.5-1.14,60.6-2.69Z"/>
        <path class="cls-5" d="M90.61,142.73s-3.11,18.7-30.85,8.53"/>
        <path class="cls-5" d="M102.49,144.53s-4.6,42.63-45.59,19.44"/>
        <path class="cls-5" d="M67.83,153.59c-.11-.92-1.04-7.74-6.04-10.1-5.81-2.74-12.26-.75-16.12,6.81-5.5,10.81-3.75,28.04,5.85,31.47,3.88,1.38,9.67,1.23,13.14-2.59,4.25-4.67,4.21-9.38,4.11-9.92"/>
        <line class="cls-5" x1="3.4" y1="148.85" x2="3.4" y2="148.84"/>
        <line class="cls-5" x1="109.6" y1="144.2" x2="118.75" y2="168.6"/>
        <line class="cls-5" x1="124.91" y1="139.65" x2="131.41" y2="155.83"/>
        <path class="cls-5" d="M127.1,159.8c5.69-6.77,14.44-9.44,21.92-6.88,5.32,1.82,9.89,6.25,11.43,11.66,3.74,13.15-12.36,25.18-14.46,26.7-2.61,1.9-18.01,13.08-27.63,5.83-6.32-4.76-8.76-13.32-7.46-19.1,1.01-4.49,3.47-8.58,7.42-10.57"/>
        <path class="cls-5" d="M120.95,189.13c1.15-3.53,3.55-9.25,8.58-14.73,7.66-8.36,16.78-11.1,20.6-12.02"/>
        <g>
          <path class="cls-5" d="M143.47,81.43s7.02,10.08,16.01,9.79,4.7-16.5,4.7-16.5c0,0-7.99-3.89-7.6-11.05,0,0-.79-9.59,4.06-12.49,0,0,1.75-1.01,3.73-1.12.78-.04.96-.16,2.24.48,4.25,2.14.89,10.98.89,10.98,0,0,8.02-3.7,9.96,8.06"/>
          <path class="cls-5" d="M178.24,54s-5.55,1.48-8.03-2.53,3.79-11.64,3.79-11.64c-1.87-5.04-7.66-2.27-7.66-2.27-7.15,4.09-5.1,13.32-5.1,13.32"/>
          <path class="cls-5" d="M190.15,55.97s-15.94,10.1-11.47-4.14c1.09-3.48,4.27-7.28,4.27-7.28,2.03-2.69-.96-4.7-.96-4.7-4.93-3.62-9.7,2.22-9.61,2.25"/>
          <path class="cls-5" d="M182.95,44.55c.59-.51,6.04-5.06,10.16,1.01,0,0,5.05,7.41,2.23,17.9-2.87,10.65-17.47,14.36-17.47,14.36,0,0,1.61,10.2-1.88,16.11-3.49,5.91-9.93,11.28-13.83,12.08-3.89.81-10.2,4.03-17.45-3.09,0,0-3.33-2.46-4.55-4.72"/>
        </g>
        <path class="cls-3" d="M142.23,42.05c0,10.81-6.31,19.57-14.1,19.57-4.69,0-8.84-3.18-11.4-8.07.32.07.65.1.98.1,4.22,0,7.63-5.01,7.63-11.2s-3.41-11.2-7.63-11.2c-.49,0-.97.07-1.43.21,2.5-5.41,6.87-8.99,11.85-8.99,7.79,0,14.1,8.76,14.1,19.58Z"/>
        <path class="cls-3" d="M117.02,42.05c0,3.16-.54,6.14-1.49,8.77-.24.67-.51,1.32-.8,1.95-2.53,5.33-6.87,8.85-11.81,8.85s-8.97-3.28-11.51-8.3c.6.22,1.22.33,1.86.33,4.22,0,7.64-5.01,7.64-11.2s-3.42-11.2-7.64-11.2c-.82,0-1.61.19-2.35.55,2.48-5.6,6.92-9.33,12.01-9.33s9.63,3.81,12.09,9.51c.19.42.36.85.52,1.3.95,2.63,1.49,5.61,1.49,8.77Z"/>
        <path class="cls-2" d="M100.24,42.45c0,6.19-3.42,11.2-7.64,11.2,0,0-.01,0-.02,0-1.09,0-2.06-.72-2.49-1.73-1.23-2.89-1.93-6.27-1.93-9.87,0-3.21.56-6.23,1.54-8.91.36-.99,1.23-1.72,2.28-1.85.2-.02.41-.04.62-.04,4.22,0,7.64,5.02,7.64,11.2Z"/>
        <path class="cls-4" d="M125.34,42.45c0,6.19-3.41,11.2-7.63,11.2-.33,0-.65-.03-.98-.1-.45-.86-.85-1.77-1.2-2.73.95-2.63,1.49-5.61,1.49-8.77s-.54-6.14-1.49-8.77c.22-.62.47-1.23.75-1.81.46-.14.94-.21,1.43-.21,4.22,0,7.63,5.02,7.63,11.2Z"/>
        <path d="M106.43,0c15.09.16,30.87.05,45.84,1.74,2.06.23,7.49.78,9.05,1.86,1.42.99,1.28,4.3,1.1,5.88-.34,3.04-4.64,3.21-7.13,3.57-7.74,1.13-15.75,1.23-23.55,1.55-24.78,1-49.89,1.06-74.64-.21-6.16-.32-12.4-.45-18.52-1.34-1.73-.25-4.16-.41-5.75-1.43-.89-.57-1.37-1.6-1.37-2.66v-2.82c0-.97.43-1.92,1.23-2.46,1.82-1.25,4.74-1.44,6.76-1.71C55.24-.12,71.98.37,87.91.01,87.91.01,106.06,0,106.43,0Z"/>
      </g>
    </g>
  </g>
</svg>