<svg xmlns="http://www.w3.org/2000/svg" fill="none" viewBox="0 0 24 24" id="Local-Atm--Streamline-Rounded-Material" height="24" width="24">
  <desc>
    Local Atm Streamline Icon: https://streamlinehq.com
  </desc>
  <path fill="#000000" d="M13.375 14.525h-3.5c-0.2125 0 -0.3906 0.07235 -0.53425 0.217 -0.14385 0.1445 -0.21575 0.32365 -0.21575 0.5375 0 0.21365 0.0719 0.39135 0.21575 0.533 0.14365 0.14165 0.32175 0.2125 0.53425 0.2125h1.45v0.375c0 0.2125 0.07235 0.3906 0.217 0.53425 0.1445 0.14385 0.32365 0.21575 0.5375 0.21575 0.21365 0 0.39135 -0.0719 0.533 -0.21575 0.14165 -0.14365 0.2125 -0.32175 0.2125 -0.53425v-0.375h1.2c0.25 0 0.45415 -0.09585 0.6125 -0.2875 0.15835 -0.19165 0.2375 -0.42275 0.2375 -0.69325v-2.8635c0 -0.2705 -0.07915 -0.5016 -0.2375 -0.69325s-0.3625 -0.2875 -0.6125 -0.2875h-3.4v-1.725h3.5c0.2125 0 0.39065 -0.07235 0.5345 -0.217 0.14365 -0.1445 0.2155 -0.32365 0.2155 -0.5375 0 -0.21365 -0.07185 -0.39135 -0.2155 -0.533 -0.14385 -0.14165 -0.322 -0.2125 -0.5345 -0.2125h-1.3v-0.375c0 -0.2125 -0.07235 -0.39065 -0.217 -0.5345 -0.1445 -0.14365 -0.32365 -0.2155 -0.5375 -0.2155 -0.21365 0 -0.39135 0.07185 -0.533 0.2155 -0.14165 0.14385 -0.2125 0.322 -0.2125 0.5345v0.375H10.1c-0.27635 0 -0.5079 0.09585 -0.69475 0.2875 -0.18685 0.19165 -0.28025 0.42915 -0.28025 0.7125v2.85c0 0.24785 0.09585 0.45565 0.2875 0.6235 0.19165 0.16765 0.42085 0.2515 0.6875 0.2515h3.275v1.825ZM3.5 20c-0.4 0 -0.75 -0.15 -1.05 -0.45 -0.3 -0.3 -0.45 -0.65 -0.45 -1.05V5.5c0 -0.4 0.15 -0.75 0.45 -1.05C2.75 4.15 3.1 4 3.5 4h17c0.4 0 0.75 0.15 1.05 0.45 0.3 0.3 0.45 0.65 0.45 1.05v13c0 0.4 -0.15 0.75 -0.45 1.05 -0.3 0.3 -0.65 0.45 -1.05 0.45H3.5Zm0 -1.5h17V5.5H3.5v13Z" stroke-width="0.5"></path>
</svg>