<?xml version="1.0" encoding="UTF-8"?>
<svg id="Calque_2" data-name="Calque 2" xmlns="http://www.w3.org/2000/svg" viewBox="0 0 117.11 86.72">
  <defs>
    <style>
      .cls-1 {
        fill: #fff;
      }

      .cls-1, .cls-2 {
        stroke-width: 5.18px;
      }

      .cls-1, .cls-2, .cls-3 {
        stroke: #000;
        stroke-miterlimit: 10;
      }

      .cls-3 {
        stroke-width: 3.79px;
      }
    </style>
  </defs>
  <g id="Calque_1-2" data-name="Calque 1">
    <g>
      <path class="cls-1" d="M114.52,43.37c0,22.51-13.15,40.77-29.38,40.77-9.76,0-18.41-6.62-23.74-16.8.67.14,1.35.21,2.04.21,8.78,0,15.89-10.44,15.89-23.32s-7.11-23.32-15.89-23.32c-1.02,0-2.02.14-2.98.43,5.21-11.27,14.32-18.74,24.69-18.74,16.23,0,29.38,18.25,29.38,40.78Z"/>
      <path class="cls-1" d="M62.01,43.37c0,6.57-1.12,12.78-3.11,18.27-.5,1.4-1.07,2.74-1.67,4.05-5.26,11.11-14.32,18.44-24.6,18.44s-18.68-6.83-23.98-17.29c1.24.45,2.54.69,3.86.69,8.78,0,15.91-10.44,15.91-23.32s-7.12-23.32-15.91-23.32c-1.71,0-3.35.4-4.9,1.14C12.77,10.37,22.03,2.59,32.63,2.59s20.06,7.94,25.19,19.81c.4.88.76,1.78,1.09,2.71,1.98,5.49,3.11,11.7,3.11,18.27Z"/>
      <path class="cls-3" d="M27.05,44.22c0,12.89-7.12,23.32-15.91,23.32-.01,0-.03,0-.04,0-2.28,0-4.3-1.5-5.19-3.6-2.56-6.03-4.02-13.06-4.02-20.57,0-6.69,1.16-12.99,3.21-18.55.76-2.06,2.57-3.59,4.74-3.85.42-.05.85-.08,1.29-.08,8.78,0,15.91,10.45,15.91,23.32Z"/>
      <path class="cls-2" d="M79.33,44.22c0,12.89-7.11,23.32-15.89,23.32-.69,0-1.36-.07-2.04-.21-.93-1.79-1.78-3.69-2.5-5.69,1.98-5.49,3.11-11.7,3.11-18.27s-1.12-12.78-3.11-18.27c.47-1.29.98-2.57,1.55-3.78.97-.29,1.97-.43,2.98-.43,8.78,0,15.89,10.45,15.89,23.32Z"/>
    </g>
  </g>
</svg>