<?xml version="1.0" encoding="utf-8"?>
<svg xmlns="http://www.w3.org/2000/svg" viewBox="1.45 1.98 321.23 62.26" width="321.23px" height="62.26px"><defs><style>
      .cls-1 {
        fill: #fff;
      }

      .cls-1, .cls-2 {
        stroke-width: 3.95px;
      }

      .cls-1, .cls-2, .cls-3 {
        stroke: #000;
        stroke-miterlimit: 10;
      }

      .cls-3 {
        stroke-width: 2.89px;
      }
    </style></defs><g id="Calque_1-2" data-name="Calque 1"><g id="object-1"><g><path d="M252.81,49.36c-3.27,0-6.21-.67-8.83-2.02-2.62-1.35-4.68-3.36-6.18-6.03-1.5-2.67-2.25-5.95-2.25-9.85s.76-7.27,2.28-10.1c1.52-2.83,3.6-5.01,6.25-6.53,2.65-1.52,5.68-2.28,9.08-2.28,3.93,0,6.95.55,9.05,1.65,2.1,1.1,3.15,2.73,3.15,4.9,0,1.67-.45,3.04-1.35,4.13-.9,1.08-2.13,1.62-3.7,1.62-1.33,0-2.62-.17-3.88-.53-1.25-.35-2.71-.53-4.38-.53-2.13,0-3.82.62-5.05,1.85-1.23,1.23-1.85,2.85-1.85,4.85s.62,3.61,1.85,4.93c1.23,1.32,2.92,1.98,5.05,1.98,1.13,0,2.17-.09,3.12-.28.95-.18,1.88-.38,2.8-.58.92-.2,1.91-.3,2.98-.3,1.77,0,3.07.58,3.9,1.73.83,1.15,1.25,2.58,1.25,4.28s-.62,3.08-1.85,4.13c-1.23,1.05-2.86,1.81-4.88,2.28-2.02.47-4.21.7-6.58.7Z" style="fill: rgb(255, 255, 255);"/><path d="M276.46,49.26c-2.33,0-4.23-.88-5.7-2.65-1.47-1.77-2.22-4.25-2.25-7.45l-.05-11.55c0-1.43.44-2.56,1.33-3.38.88-.82,2.09-1.23,3.62-1.23s2.65.41,3.55,1.23c.9.82,1.35,1.94,1.35,3.38v10.45c0,2.5.98,3.75,2.95,3.75.97,0,1.62-.36,1.95-1.08.33-.72.5-1.64.5-2.78v-10.35c0-1.3.45-2.39,1.35-3.28.9-.88,2.07-1.33,3.5-1.33s2.66.44,3.48,1.33c.82.88,1.22,1.98,1.22,3.28v16.4c0,1.6-.36,2.88-1.08,3.83s-1.88,1.42-3.47,1.42-2.79-.47-3.68-1.42c-.88-.95-1.33-2.23-1.33-3.83v-.85h-.9c0,1.93-.58,3.43-1.73,4.5-1.15,1.07-2.69,1.6-4.62,1.6Z" style="fill: rgb(255, 255, 255);"/><path d="M313.57,49.26c-1.83,0-3.36-.57-4.58-1.7-1.22-1.13-1.99-2.6-2.33-4.4h-.9v11.5c0,1.37-.38,2.53-1.15,3.48-.77.95-1.93,1.43-3.5,1.43s-2.66-.48-3.48-1.43c-.82-.95-1.22-2.14-1.22-3.58v-18.7c0-1.67-.06-3.08-.17-4.23-.12-1.15-.23-2.19-.33-3.12-.13-1.4.15-2.59.85-3.58s1.83-1.58,3.4-1.78c2.03-.27,3.48.09,4.33,1.08.85.98,1.28,2.51,1.28,4.58v2.4l.2.05c.17-1.3.56-2.58,1.18-3.83.62-1.25,1.49-2.28,2.62-3.1,1.13-.82,2.57-1.22,4.3-1.22,2.9,0,5.06,1.16,6.48,3.47,1.42,2.32,2.13,5.41,2.13,9.28,0,8.94-3.03,13.4-9.1,13.4ZM305.56,35.76c0,.53.07.95.2,1.25.2.63.62,1.09,1.27,1.38.65.28,1.63.43,2.93.43,1.67,0,2.81-.25,3.43-.75.62-.5.92-1.27.92-2.3s-.3-1.84-.9-2.33c-.6-.48-1.73-.73-3.4-.73-1.33,0-2.33.14-2.98.43-.65.28-1.08.74-1.27,1.38-.13.3-.2.72-.2,1.25Z" style="fill: rgb(255, 255, 255);"/></g><g><path d="M125.88,49.36c-3.27,0-6.21-.67-8.83-2.02-2.62-1.35-4.68-3.36-6.18-6.03-1.5-2.67-2.25-5.95-2.25-9.85s.76-7.27,2.28-10.1c1.52-2.83,3.6-5.01,6.25-6.53,2.65-1.52,5.68-2.28,9.08-2.28,3.93,0,6.95.55,9.05,1.65,2.1,1.1,3.15,2.73,3.15,4.9,0,1.67-.45,3.04-1.35,4.13-.9,1.08-2.13,1.62-3.7,1.62-1.33,0-2.63-.17-3.88-.53-1.25-.35-2.71-.53-4.38-.53-2.13,0-3.82.62-5.05,1.85-1.23,1.23-1.85,2.85-1.85,4.85s.62,3.61,1.85,4.93c1.23,1.32,2.92,1.98,5.05,1.98,1.13,0,2.18-.09,3.13-.28.95-.18,1.88-.38,2.8-.58.92-.2,1.91-.3,2.98-.3,1.77,0,3.07.58,3.9,1.73.83,1.15,1.25,2.58,1.25,4.28s-.62,3.08-1.85,4.13c-1.23,1.05-2.86,1.81-4.88,2.28s-4.21.7-6.58.7Z" style="fill: rgb(255, 255, 255);"/><path d="M146.23,49.26c-1.63,0-2.86-.43-3.68-1.3-.82-.87-1.23-1.95-1.23-3.25V15.71c0-1.43.41-2.63,1.23-3.58.82-.95,2.04-1.43,3.68-1.43,1.47,0,2.6.48,3.4,1.43.8.95,1.2,2.11,1.2,3.47v29.1c0,1.3-.4,2.38-1.2,3.25-.8.87-1.93,1.3-3.4,1.3Z" style="fill: rgb(255, 255, 255);"/><path d="M153.13,36.26c0-2.63.52-4.95,1.58-6.95,1.05-2,2.55-3.57,4.5-4.7,1.95-1.13,4.28-1.7,6.98-1.7,2.1,0,3.99.38,5.68,1.15,1.68.77,3.01,1.79,3.98,3.08.97,1.28,1.45,2.69,1.45,4.23s-.47,2.73-1.4,3.4c-.93.67-2.32,1-4.15,1h-10.5c0,.87.34,1.58,1.02,2.15.68.57,1.84.85,3.48.85.83,0,1.61-.08,2.33-.25.72-.17,1.45-.32,2.2-.47.75-.15,1.59-.22,2.53-.22,1.33,0,2.43.47,3.3,1.42.87.95,1.3,2.26,1.3,3.93,0,1.97-1.01,3.5-3.03,4.6-2.02,1.1-4.66,1.65-7.93,1.65-2.3,0-4.46-.45-6.48-1.35-2.02-.9-3.66-2.33-4.93-4.28-1.27-1.95-1.9-4.46-1.9-7.53ZM169.34,34.11c.5,0,.67-.23.5-.7-.13-.47-.53-.95-1.2-1.45-.67-.5-1.63-.75-2.9-.75-1.47,0-2.56.32-3.28.95-.72.63-1.08,1.28-1.08,1.95h7.95Z" style="fill: rgb(255, 255, 255);"/><path d="M187.04,49.26c-2.47,0-4.39-.67-5.78-2-1.38-1.33-2.08-3.2-2.08-5.6s.8-4.14,2.4-5.23c1.6-1.08,3.65-1.62,6.15-1.62,1.47,0,2.8.1,4,.3s2.28.48,3.25.85h.15v-.75c0-.77-.28-1.38-.85-1.83-.57-.45-1.28-.66-2.15-.62-.83,0-1.54.05-2.13.15-.58.1-1.31.27-2.18.5-1.6.4-2.98.37-4.15-.1-1.17-.47-1.97-1.38-2.4-2.75-.4-1.43-.31-2.63.27-3.6.58-.97,1.48-1.72,2.68-2.25,1.03-.5,2.19-.92,3.48-1.25,1.28-.33,2.68-.5,4.18-.5,4.37,0,7.58,1.06,9.63,3.18s3.08,5.66,3.08,10.63v7.75c0,1.37-.42,2.5-1.25,3.4-.83.9-1.98,1.35-3.45,1.35-1.6,0-2.79-.45-3.58-1.35-.78-.9-1.18-2-1.18-3.3v-1.15h-1c0,.87-.16,1.75-.47,2.65-.32.9-.97,1.65-1.95,2.25-.98.6-2.54.9-4.68.9ZM187.54,38.31c0,.57.21.97.62,1.2.42.23,1.33.35,2.73.35,1.27,0,2.15-.12,2.65-.35.5-.23.75-.63.75-1.2,0-.53-.25-.91-.75-1.13-.5-.22-1.38-.32-2.65-.32-1.4,0-2.31.11-2.73.32-.42.22-.62.59-.62,1.13Z" style="fill: rgb(255, 255, 255);"/><path d="M212.14,49.26c-1.57,0-2.78-.45-3.65-1.35-.87-.9-1.3-2.03-1.3-3.4v-16.4c0-1.43.43-2.62,1.3-3.58.87-.95,2.08-1.42,3.65-1.42s2.77.47,3.6,1.42c.83.95,1.25,2.11,1.25,3.48v1.05h.95c.13-1.77.8-3.22,2-4.35,1.2-1.13,2.62-1.7,4.25-1.7s2.93.5,3.88,1.5c.95,1,1.43,2.33,1.43,4,0,1.57-.45,2.87-1.35,3.9-.9,1.03-2.05,1.55-3.45,1.55-1.17,0-2.14-.28-2.93-.83-.78-.55-1.36-1.19-1.73-1.93-1.07-.13-1.84-.02-2.33.33-.48.35-.73,1.04-.73,2.08v10.9c0,1.37-.42,2.5-1.25,3.4-.83.9-2.03,1.35-3.6,1.35Z" style="fill: rgb(255, 255, 255);"/></g></g><g id="object-0"><path class="cls-1" d="M87.44,33.11c0,17.19-10.04,31.13-22.43,31.13-7.46,0-14.05-5.06-18.12-12.83.51.11,1.03.16,1.55.16,6.7,0,12.13-7.97,12.13-17.81s-5.43-17.81-12.13-17.81c-.78,0-1.54.11-2.28.33,3.98-8.6,10.93-14.3,18.85-14.3,12.39,0,22.43,13.94,22.43,31.14Z"/><path class="cls-1" d="M47.34,33.11c0,5.02-.86,9.76-2.37,13.95-.38,1.07-.82,2.09-1.28,3.1-4.02,8.48-10.93,14.08-18.78,14.08s-14.27-5.22-18.31-13.2c.95.34,1.94.53,2.95.53,6.7,0,12.14-7.97,12.14-17.81s-5.44-17.81-12.14-17.81c-1.3,0-2.56.3-3.74.87C9.75,7.92,16.82,1.98,24.91,1.98s15.32,6.06,19.23,15.12c.3.67.58,1.36.83,2.07,1.51,4.19,2.37,8.93,2.37,13.95Z"/><path class="cls-3" d="M20.65,33.76c0,9.84-5.44,17.81-12.14,17.81-.01,0-.02,0-.03,0-1.74,0-3.28-1.15-3.96-2.75-1.95-4.6-3.07-9.97-3.07-15.7,0-5.11.88-9.92,2.45-14.17.58-1.57,1.96-2.74,3.62-2.94.32-.04.65-.06.98-.06,6.7,0,12.14,7.98,12.14,17.81Z"/><path class="cls-2" d="M60.57,33.76c0,9.84-5.43,17.81-12.13,17.81-.53,0-1.04-.05-1.55-.16-.71-1.37-1.36-2.82-1.91-4.35,1.51-4.19,2.37-8.93,2.37-13.95s-.86-9.76-2.37-13.95c.36-.99.75-1.96,1.19-2.88.74-.22,1.5-.33,2.28-.33,6.7,0,12.13,7.98,12.13,17.81Z"/></g></g></svg>