<svg xmlns="http://www.w3.org/2000/svg" fill="none" viewBox="0 0 24 24" id="Water-Loss--Streamline-Rounded-Material" height="24" width="24">
  <desc>
    Water Loss Streamline Icon: https://streamlinehq.com
  </desc>
  <path fill="#000000" d="M11.10015 15.75c-0.86665 0 -1.71665 0.12085 -2.55 0.3625 -0.8333 0.24165 -1.625 0.57915 -2.375 1.0125l0.375 3.375h10.9l0.425 -3.75h-0.45c-0.61665 0 -1.1833 -0.04585 -1.7 -0.1375 -0.51665 -0.09165 -1.225 -0.2625 -2.125 -0.5125 -0.41665 -0.11665 -0.82915 -0.20415 -1.2375 -0.2625 -0.4083 -0.05835 -0.82915 -0.0875 -1.2625 -0.0875Zm-5.1 -0.25c0.78335 -0.4 1.608 -0.70835 2.474 -0.925 0.8662 -0.21665 1.7415 -0.325 2.626 -0.325 0.5 0 0.99585 0.03335 1.4875 0.1 0.4917 0.06665 0.9625 0.16665 1.4125 0.3 0.8522 0.23335 1.5041 0.39165 1.95575 0.475 0.4515 0.08335 0.93295 0.125 1.44425 0.125h0.625l1.3 -11.75H4.675165l1.324985 12Zm0.55 6.5c-0.3833 0 -0.7195 -0.1244 -1.0085 -0.37325 -0.28915 -0.24885 -0.453 -0.5661 -0.4915 -0.95175L3.200165 3.85c-0.05 -0.5 0.092585 -0.933335 0.42775 -1.3 0.335 -0.366665 0.75075 -0.55 1.24725 -0.55H19.12515c0.4965 0 0.91225 0.183335 1.24725 0.55 0.3352 0.366665 0.47775 0.8 0.42775 1.3l-1.85 16.825c-0.0385 0.38565 -0.2023 0.7029 -0.4915 0.95175 -0.289 0.24885 -0.62515 0.37325 -1.0085 0.37325h-10.9Zm4.55 -1.5h6.35Z" stroke-width="0.5"></path>
</svg>